<svg xmlns="http://www.w3.org/2000/svg" width="820.3" height="433.88" viewBox="0 0 820.3 433.88"><title>Безымянный-2</title><path d="M908.58,720.05a37.79,37.79,0,0,1-21.64,8.78c-.56,0-1.13.07-1.7.09l-.89,0H644c-20.72,0-38.12-16.31-38.64-37a38,38,0,0,1,38-39H802.59a0,0,0,0,0,0-.05L699.88,530.45a4.91,4.91,0,0,0-7.52,0l-155,184.66-.21.26c-.12.15-.25.3-.38.44s-.4.46-.6.68a34.89,34.89,0,0,1-2.58,2.58c-.22.2-.45.41-.68.6s-.46.4-.7.59-.49.42-.75.61l-.68.52a34.5,34.5,0,0,1-3.48,2.32c-.5.29-1,.57-1.51.84-.69.37-1.39.71-2.11,1-1.13.51-2.28,1-3.45,1.36L520,727c-.62.21-1.25.39-1.88.57a38.17,38.17,0,0,1-5,1c-.33,0-.67.09-1,.12a37.18,37.18,0,0,1-4.08.22l-1.29,0-.56,0h-.07q-.64,0-1.29-.09c-.46,0-.92-.08-1.38-.15l-.45,0c-.47-.06-.93-.13-1.39-.21s-1.06-.19-1.59-.31-1-.22-1.44-.34l-.15,0c-.53-.14-1.05-.29-1.57-.45l-.08,0c-1-.32-2-.68-3-1.08-.45-.19-.89-.37-1.32-.57l-.33-.15-1.33-.65-.06,0c-.49-.25-1-.52-1.46-.79s-1-.57-1.44-.87-.95-.62-1.42-.94-.93-.67-1.39-1-.89-.7-1.33-1.07h0c-.56-.47-1.1-.95-1.63-1.45l-.75-.72a38,38,0,0,1-3.74-4.32l-.45-.62c-.64-.9-1.23-1.81-1.78-2.74-.29-.5-.57-1-.84-1.51-.36-.69-.71-1.4-1-2.11a38.43,38.43,0,0,1-3-10.6c-.05-.33-.09-.67-.12-1a36.69,36.69,0,0,1-.22-4.06V504.37a3.44,3.44,0,0,0-3.43-3.43h-270c-10.32,0-19.13,8-19.47,18.36a19,19,0,0,0,19,19.64H347.85a97,97,0,0,1,9.7.55,95,95,0,0,1-9.7,189.43h-200a38,38,0,0,1-38-37.24c-.42-21.32,17.46-38.76,38.77-38.76H347.36c10.33,0,19.14-8,19.48-18.35a19,19,0,0,0-19-19.65H196.2c-3.27,0-6.51-.21-9.7-.55A95,95,0,0,1,196.2,425H504.28a41.79,41.79,0,0,1,41.8,41.79V586.45a0,0,0,0,0,.06,0l116.3-138.6,4.65-5.54a38,38,0,0,1,53.36-4.82,37.53,37.53,0,0,1,4.34,4.39l2.35,2.79,0,.06L913.26,666.51A38,38,0,0,1,908.58,720.05Z" transform="translate(-101.85 -295.06)" fill="#929290"/><circle cx="410.15" cy="50" r="50" fill="#7bb04c"/></svg>