<svg width="48" height="48" viewBox="0 0 48 48" fill="none" xmlns="http://www.w3.org/2000/svg">
<path opacity="0.35" d="M15.6 44.64C9.9096 44.64 5.28 40.0104 5.28 34.32V15.6C5.28 9.90963 9.9096 5.28003 15.6 5.28003H34.32C40.0104 5.28003 44.64 9.90963 44.64 15.6V34.32C44.64 40.0104 40.0104 44.64 34.32 44.64H15.6Z" fill="black"/>
<path d="M14.64 43.6801C8.94961 43.6801 4.32001 39.0505 4.32001 33.3601V14.6401C4.32001 8.94967 8.94961 4.32007 14.64 4.32007H33.36C39.0504 4.32007 43.68 8.94967 43.68 14.6401V33.3601C43.68 39.0505 39.0504 43.6801 33.36 43.6801H14.64Z" fill="#F2F2F2"/>
<path d="M33.36 40.5599H14.64C10.6637 40.5599 7.44 37.3363 7.44 33.3599V14.6399C7.44 10.6636 10.6637 7.43994 14.64 7.43994H33.36C37.3363 7.43994 40.56 10.6636 40.56 14.6399V33.3599C40.56 37.3363 37.3363 40.5599 33.36 40.5599Z" fill="#D84178"/>
<path d="M33.36 41.28H14.64C10.273 41.28 6.72 37.727 6.72 33.36V14.64C6.72 10.2729 10.273 6.71997 14.64 6.71997H33.36C37.727 6.71997 41.28 10.2729 41.28 14.64V33.36C41.28 37.727 37.727 41.28 33.36 41.28ZM14.64 8.15997C11.0669 8.15997 8.16 11.0669 8.16 14.64V33.36C8.16 36.9331 11.0669 39.84 14.64 39.84H33.36C36.9331 39.84 39.84 36.9331 39.84 33.36V14.64C39.84 11.0669 36.9331 8.15997 33.36 8.15997H14.64Z" fill="#40396E"/>
<path d="M23.9976 11.04C20.4773 11.04 20.0357 11.0554 18.6533 11.1183C17.2733 11.1816 16.3315 11.4 15.5074 11.7207C14.6549 12.0519 13.9315 12.4944 13.2115 13.2154C12.4906 13.9359 12.0475 14.6588 11.7154 15.5112C11.3942 16.3359 11.1754 17.2776 11.113 18.6572C11.051 20.0396 11.0347 20.4816 11.0347 24.002C11.0347 27.5223 11.0506 27.9624 11.113 29.3448C11.1763 30.7248 11.3947 31.6666 11.7154 32.4908C12.0466 33.3432 12.4896 34.0666 13.2101 34.7866C13.9301 35.5076 14.6534 35.9516 15.5054 36.2828C16.3301 36.6034 17.2723 36.8218 18.6518 36.8852C20.0342 36.948 20.4758 36.9634 23.9957 36.9634C27.516 36.9634 27.9566 36.948 29.3391 36.8852C30.719 36.8218 31.6618 36.6034 32.4864 36.2828C33.3384 35.9516 34.0608 35.5076 34.7808 34.7866C35.5018 34.0661 35.9448 33.3432 36.277 32.4908C36.5957 31.6661 36.8141 30.7244 36.8794 29.3448C36.9413 27.9624 36.9576 27.5218 36.9576 24.0015C36.9576 20.4812 36.9413 20.0396 36.8794 18.6572C36.8146 17.2772 36.5957 16.3354 36.277 15.5112C35.9448 14.6588 35.5018 13.9354 34.7808 13.2154C34.0598 12.4944 33.3389 12.0514 32.4855 11.7207C31.6594 11.4 30.7166 11.1816 29.3371 11.1183C27.9552 11.0554 27.515 11.04 23.9938 11.04H23.9976ZM22.835 13.3757C23.1802 13.3752 23.5651 13.3757 23.9976 13.3757C27.4584 13.3757 27.8683 13.3882 29.2349 13.4501C30.4987 13.5077 31.1846 13.7189 31.6416 13.8965C32.2464 14.1312 32.6779 14.412 33.1311 14.8661C33.5847 15.3197 33.8654 15.7517 34.1011 16.3565C34.2787 16.813 34.4899 17.4989 34.5475 18.7623C34.6094 20.1288 34.6234 20.5392 34.6234 23.9981C34.6234 27.457 34.6099 27.8679 34.5475 29.234C34.4899 30.4978 34.2787 31.1837 34.1011 31.6397C33.8664 32.2445 33.5847 32.6751 33.1311 33.1287C32.6775 33.5823 32.2469 33.8631 31.6416 34.0983C31.1851 34.2764 30.4987 34.4871 29.2349 34.5447C27.8683 34.6066 27.4579 34.6205 23.9976 34.6205C20.5368 34.6205 20.1264 34.6071 18.7603 34.5447C17.4965 34.4861 16.8106 34.2754 16.3536 34.0978C15.7488 33.8631 15.3168 33.5818 14.8632 33.1282C14.4096 32.6746 14.1288 32.2436 13.8931 31.6383C13.7155 31.1818 13.5043 30.4959 13.4467 29.2325C13.3848 27.866 13.3723 27.4556 13.3723 23.9943C13.3723 20.533 13.3848 20.1245 13.4467 18.7584C13.5043 17.4946 13.7155 16.8087 13.8931 16.3517C14.1278 15.7469 14.4096 15.3149 14.8632 14.8613C15.3168 14.4077 15.7488 14.1269 16.3536 13.8912C16.8106 13.7132 17.4965 13.5024 18.7603 13.4444C19.956 13.3901 20.4192 13.3743 22.835 13.3714V13.3757ZM30.9163 15.528C30.0576 15.528 29.3611 16.224 29.3611 17.0828C29.3611 17.9415 30.0576 18.638 30.9163 18.638C31.775 18.638 32.4715 17.9415 32.4715 17.0828C32.4715 16.224 31.775 15.528 30.9163 15.528ZM23.9976 17.3453C20.3218 17.3453 17.3414 20.3256 17.3414 24.0015C17.3414 27.6773 20.3218 30.6562 23.9976 30.6562C27.6734 30.6562 30.6528 27.6773 30.6528 24.0015C30.6528 20.3256 27.6734 17.3453 23.9976 17.3453ZM23.9976 19.681C26.3837 19.681 28.3181 21.6154 28.3181 24.0015C28.3181 26.3876 26.3837 28.322 23.9976 28.322C21.6115 28.322 19.6771 26.3876 19.6771 24.0015C19.6771 21.6154 21.6115 19.681 23.9976 19.681Z" fill="#F2F2F2"/>
</svg>
