<svg width="48" height="48" viewBox="0 0 48 48" fill="none" xmlns="http://www.w3.org/2000/svg">
<path opacity="0.35" d="M24.96 46.0801C36.6243 46.0801 46.08 36.6243 46.08 24.9601C46.08 13.2958 36.6243 3.84009 24.96 3.84009C13.2957 3.84009 3.84 13.2958 3.84 24.9601C3.84 36.6243 13.2957 46.0801 24.96 46.0801Z" fill="black"/>
<path d="M24 45.1199C35.6643 45.1199 45.12 35.6641 45.12 23.9999C45.12 12.3356 35.6643 2.87988 24 2.87988C12.3358 2.87988 2.88 12.3356 2.88 23.9999C2.88 35.6641 12.3358 45.1199 24 45.1199Z" fill="#F2F2F2"/>
<path d="M42 24C42 33.9403 33.9403 42 24 42C14.0597 42 6 33.9403 6 24C6 14.0597 14.0597 6 24 6C33.9403 6 42 14.0597 42 24Z" fill="#70BFFF"/>
<path d="M24 42.72C13.6776 42.72 5.28 34.3224 5.28 24C5.28 13.6776 13.6776 5.28003 24 5.28003C34.3224 5.28003 42.72 13.6776 42.72 24C42.72 34.3224 34.3224 42.72 24 42.72ZM24 6.72003C14.4715 6.72003 6.72 14.4715 6.72 24C6.72 33.5285 14.4715 41.28 24 41.28C33.5285 41.28 41.28 33.5285 41.28 24C41.28 14.4715 33.5285 6.72003 24 6.72003Z" fill="#40396E"/>
<path d="M12.7977 23.7451C19.0886 20.9775 27.2294 17.6035 28.3536 17.1365C31.3013 15.9144 32.2056 16.1482 31.7549 18.8554C31.4309 20.8013 30.4968 27.2424 29.7513 31.2519C29.3093 33.6298 28.3176 33.9115 26.759 32.8824C26.0093 32.3875 22.2249 29.8843 21.4032 29.2968C20.6534 28.7611 19.6195 28.117 20.9165 26.8479C21.3782 26.3962 24.4032 23.5071 26.76 21.2587C27.0686 20.9635 26.6808 20.4783 26.3246 20.7149C23.1475 22.8216 18.743 25.7458 18.1824 26.1264C17.3357 26.7015 16.5221 26.9655 15.0619 26.5459C13.9584 26.2291 12.8813 25.8514 12.4617 25.7069C10.8456 25.1539 11.2291 24.4354 12.7977 23.7451Z" fill="#F2F2F2"/>
</svg>
