<svg width="48" height="48" viewBox="0 0 48 48" fill="none" xmlns="http://www.w3.org/2000/svg">
<path opacity="0.35" d="M24.9601 46.0801C36.6243 46.0801 46.0801 36.6243 46.0801 24.9601C46.0801 13.2958 36.6243 3.84009 24.9601 3.84009C13.2958 3.84009 3.84009 13.2958 3.84009 24.9601C3.84009 36.6243 13.2958 46.0801 24.9601 46.0801Z" fill="black"/>
<path d="M23.9999 45.1199C35.6641 45.1199 45.1199 35.6641 45.1199 23.9999C45.1199 12.3356 35.6641 2.87988 23.9999 2.87988C12.3356 2.87988 2.87988 12.3356 2.87988 23.9999C2.87988 35.6641 12.3356 45.1199 23.9999 45.1199Z" fill="#F2F2F2"/>
<path d="M42 24C42 33.9403 33.9403 42 24 42C14.0597 42 6 33.9403 6 24C6 14.0597 14.0597 6 24 6C33.9403 6 42 14.0597 42 24Z" fill="#70BFFF"/>
<path d="M24 42.72C13.6776 42.72 5.28003 34.3224 5.28003 24C5.28003 13.6776 13.6776 5.28003 24 5.28003C34.3224 5.28003 42.72 13.6776 42.72 24C42.72 34.3224 34.3224 42.72 24 42.72ZM24 6.72003C14.4715 6.72003 6.72003 14.4715 6.72003 24C6.72003 33.5285 14.4715 41.28 24 41.28C33.5285 41.28 41.28 33.5285 41.28 24C41.28 14.4715 33.5285 6.72003 24 6.72003Z" fill="#40396E"/>
<path d="M12.7978 23.7451C19.0887 20.9775 27.2295 17.6035 28.3536 17.1365C31.3013 15.9144 32.2056 16.1482 31.7549 18.8554C31.4309 20.8013 30.4968 27.2424 29.7514 31.2519C29.3093 33.6298 28.3176 33.9115 26.7591 32.8824C26.0093 32.3875 22.225 29.8843 21.4032 29.2968C20.6535 28.7611 19.6196 28.117 20.9165 26.8479C21.3783 26.3962 24.4032 23.5071 26.76 21.2587C27.0687 20.9635 26.6808 20.4783 26.3247 20.7149C23.1476 22.8216 18.7431 25.7458 18.1824 26.1264C17.3357 26.7015 16.5221 26.9655 15.062 26.5459C13.9584 26.2291 12.8813 25.8514 12.4618 25.7069C10.8456 25.1539 11.2292 24.4354 12.7978 23.7451Z" fill="#F2F2F2"/>
</svg>
