<?xml version="1.0" encoding="UTF-8"?>
<!DOCTYPE svg PUBLIC "-//W3C//DTD SVG 1.1//EN" "http://www.w3.org/Graphics/SVG/1.1/DTD/svg11.dtd">
<!-- Creator: CorelDRAW 2020 (64-Bit) -->
<svg xmlns="http://www.w3.org/2000/svg" xml:space="preserve" width="108.068mm" height="121.937mm" version="1.1" style="shape-rendering:geometricPrecision; text-rendering:geometricPrecision; image-rendering:optimizeQuality; fill-rule:evenodd; clip-rule:evenodd"
viewBox="0 0 9793.32 11050.14"
 xmlns:xlink="http://www.w3.org/1999/xlink"
 xmlns:xodm="http://www.corel.com/coreldraw/odm/2003">
 <defs>
  <style type="text/css">
   <![CDATA[
    .str2 {stroke:black;stroke-width:63.94;stroke-miterlimit:22.9256}
    .str5 {stroke:white;stroke-width:63.94;stroke-miterlimit:22.9256}
    .str6 {stroke:white;stroke-width:47.96;stroke-miterlimit:22.9256}
    .str3 {stroke:black;stroke-width:31.97;stroke-miterlimit:22.9256}
    .str0 {stroke:#2B2A29;stroke-width:18.12;stroke-miterlimit:22.9256}
    .str1 {stroke:#2B2A29;stroke-width:18.12;stroke-miterlimit:22.9256}
    .str4 {stroke:#2B2A29;stroke-width:15.99;stroke-miterlimit:22.9256}
    .fil0 {fill:none}
    .fil1 {fill:black}
    .fil3 {fill:#322F33}
    .fil4 {fill:white}
    .fil2 {fill:#2B2A29;fill-rule:nonzero}
   ]]>
  </style>
 </defs>
 <g id="Слой_x0020_1">
  <metadata id="CorelCorpID_0Corel-Layer"/>
  <g id="_2944058089360">
   <line class="fil0 str0" x1="5263.42" y1="4213.65" x2="5263.42" y2= "3333.42" />
   <path class="fil0 str0" d="M7893.65 6711.12l0 -1694.43c0,-441.66 -361.38,-803.04 -803.04,-803.04l-1827.19 0"/>
   <path class="fil0 str0" d="M8798.91 6711.12l0 -1777.19c0,-880.27 -720.25,-1600.51 -1600.51,-1600.51l-1938.27 0"/>
   <line class="fil0 str0" x1="7893.65" y1="6711.12" x2="8798.91" y2= "6711.12" />
  </g>
  <circle class="fil1 str0" cx="6008.12" cy="2448.74" r="240.95"/>
  <circle class="fil1 str0" cx="7155.99" cy="2448.74" r="240.95"/>
  <path class="fil0 str1" d="M6639.88 1514.2l0 -184.5m-214.6 -3.68c-63.79,-37.48 -105.56,-105.89 -105.56,-185.24 0,-119.18 96.61,-215.79 215.8,-215.79 119.18,0 215.79,96.61 215.79,215.79 0,82.04 -44.06,152.37 -111.46,188.87m-214.57 184.54l0 -188.18m1479.28 179.11l0 -880.23 -1938.11 0c-880.27,0 -1600.51,720.25 -1600.51,1600.51l0 1103.88m896.45 0l-896.75 -0.05m3539.08 -1824.12l-1262.53 0m-216.99 0l-360.01 0c-441.67,0 -803.14,361.37 -803.04,803.04l0.24 1021.13"/>
  <path class="fil2 str2" d="M6820.95 2854.15c-6.1,45.37 -31.13,85.96 -68.47,116.42 -42.68,34.81 -101.53,56.34 -166.39,56.34 -64.86,0 -123.72,-21.54 -166.38,-56.34 -37.35,-30.46 -62.38,-71.07 -68.47,-116.42l18.31 0c6.04,39.72 28.45,75.4 61.57,102.41 39.55,32.26 94.35,52.23 154.98,52.23 60.63,0 115.43,-19.96 154.99,-52.23 33.12,-27.01 55.53,-62.69 61.57,-102.41l18.31 0z"/>
  <path class="fil3 str0" d="M7893.65 6711.12l905.27 0 0 -1777.19c-0.4,-936.85 -603.86,-1417.44 -1600.51,-1600.51l-1936.02 -4.11 1.03 884.34 1827.19 0c494.15,30.59 756.01,304.37 803.04,803.04l0 1694.43z"/>
  <path class="fil1 str0" d="M7911.87 1509.25l894.36 0 0 1103.88c0,880.27 -720.23,1600.51 -1600.51,1600.51l-1938.11 0 0 -880.23 1839.38 0c441.67,0 802.24,-361.37 803.04,-803.04l1.85 -1021.13z"/>
  <path class="fil1 str0" d="M4365.63 3329.26l901.97 4.16 -5.46 -1025.24c0.72,-441.27 368.02,-792.45 780.13,-802.71l382.92 -0.33c0.03,-59.7 0.06,-119.41 0.09,-179.11 -187.57,-109.45 -109.2,-402.09 110.24,-401.03 248.68,21.47 281.94,300.89 104.36,404.71l0 184.5 1264.68 -9.06 0 -861.36 -1938.11 -18.87c-815.3,1.22 -1596.51,676.05 -1600.51,1600.51l-0.3 1103.84z"/>
  <polygon class="fil1" points="5262.34,2568.63 5262.34,6708.68 4365.59,6708.68 4365.59,2568.63 "/>
  <polygon class="fil2" points="5271.4,2568.63 5271.4,6717.74 4356.52,6717.74 4356.52,2568.63 4374.65,2568.63 4374.65,6699.62 5253.27,6699.62 5253.27,2568.63 "/>
  <path class="fil1 str3" d="M1641.58 1987.25l-273.67 0 -534.11 -699.2 475.41 -1143.22c33.7,-61.74 81.33,-80.55 142.17,-58.7 62.91,29.87 77.38,80.75 58.7,142.17l-421.05 1013.46 552.54 745.5z"/>
  <polygon class="fil1" points="34.52,619.36 4174.56,619.36 4174.56,1516.11 34.52,1516.11 "/>
  <rect class="fil1 str4" x="1663.69" y="3724.28" width="884.03" height="2876.06" rx="271.87" ry="198.12"/>
  <path class="fil1" d="M40.72 5826.63l3270.09 0c472.95,0 859.9,381.45 859.9,847.69l0 34.36 -4130 0 0 -882.05z"/>
  <path class="fil2" d="M40.72 5818.64l3270.09 0c238.73,0 455.74,96.27 613.05,251.34 157.31,155.08 254.96,369.01 254.96,604.34l0 34.36 -16.21 0 0 -34.36c0,-230.9 -95.84,-440.83 -250.23,-593.03 -154.38,-152.19 -367.34,-246.66 -601.58,-246.66l-3270.09 0 0 -15.99z"/>
  <path class="fil2" d="M2567.35 1987.25l0 1361.12c0,76.97 -31.48,146.94 -82.19,197.66 -50.71,50.7 -120.69,82.19 -197.66,82.19l-340.3 0c-76.97,0 -146.95,-31.49 -197.66,-82.19 -50.71,-50.71 -82.19,-120.68 -82.19,-197.66l0 -1361.12 15.99 0 0 1361.12c0,72.55 29.7,138.52 77.52,186.35 47.83,47.82 113.81,77.52 186.36,77.52l340.3 0c72.55,0 138.52,-29.7 186.36,-77.52 47.82,-47.82 77.52,-113.79 77.52,-186.35l0 -1361.12 15.99 0z"/>
  <polyline class="fil0 str5" points="2523.5,1987.25 3076.04,1241.75 2654.99,228.28 2662.31,287.97 "/>
  <polyline class="fil0 str5" points="2859.69,2037.6 3430.96,1288.05 2955.55,144.82 3045.57,235.47 "/>
  <path class="fil1" d="M2559.36 1987.25l0 1361.12c0,149.53 -122.34,271.86 -271.87,271.86l-340.3 0c-149.53,0 -271.87,-122.33 -271.87,-271.86l0 -1361.12 884.04 0z"/>
  <circle class="fil4 str0" cx="2097.44" cy="3154.9" r="231.92"/>
  <line class="fil0 str6" x1="-0" y1="1534.23" x2="4227.15" y2= "1534.23" />
  <path class="fil1 str3" d="M2575.76 1987.25l273.67 0 534.11 -699.2 -475.41 -1143.22c-33.7,-61.74 -81.33,-80.55 -142.17,-58.7 -62.91,29.87 -77.38,80.75 -58.7,142.17l421.05 1013.46 -552.54 745.5z"/>
  <path class="fil2" d="M413.01 8313.36l0 -1019.61 149.51 0 0 1019.61 -149.51 0zm-234.8 0l0 -136.52 620.34 0 0 136.52 -620.34 0zm0 -883.33l0 -136.28 620.34 0 0 136.28 -620.34 0z"/>
  <path id="1" class="fil2" d="M1482.37 8313.36l-292.89 -775.49 -66.18 0 0 -244.12 94.85 0 292.89 775.49 36.03 0 0 244.12 -64.7 0zm-456.62 0l0 -1019.61 149.26 0 0 1019.61 -149.26 0zm499.75 0l0 -1019.61 149.26 0 0 1019.61 -149.26 0z"/>
  <path id="2" class="fil2" d="M2021.09 8313.36l0 -136.52 107.6 0c104.9,0 183.58,-29.9 236.52,-89.71 52.94,-59.8 79.41,-149.51 79.41,-269.11 0,-129.91 -26.47,-226.96 -79.41,-291.18 -52.94,-64.46 -131.62,-96.81 -236.52,-96.81l-104.89 0 -17.16 -136.28 122.06 0c311.03,0 466.67,174.76 466.67,524.27 0,330.14 -155.63,495.34 -466.67,495.34l-107.6 0zm-139.46 0l0 -1019.61 149.51 0 0 1019.61 -149.51 0z"/>
  <path id="3" class="fil2" d="M3070.84 8327.82c-218.39,0 -327.45,-113.98 -327.45,-341.92l0 -692.15 149.51 0 0 692.15c0,67.89 14.46,119.12 43.63,153.68 29.17,34.56 75,51.72 137.26,51.72 120.59,0 180.88,-68.38 180.88,-205.39l0 -692.15 149.26 0 0 692.15c0,113.98 -28.18,199.51 -84.56,256.38 -56.61,56.86 -139.46,85.54 -248.52,85.54z"/>
  <path id="4" class="fil2" d="M3900.25 8327.82c-57.84,0 -112.02,-4.66 -162.5,-14.22 -50.49,-9.32 -97.3,-23.28 -140.45,-41.91l18.63 -145.09c52.7,22.55 103.43,39.7 152.7,51.47 49.02,11.76 96.81,17.64 143.14,17.64 67.15,0 116.91,-11.76 149.51,-35.3 32.35,-23.53 48.77,-59.07 48.77,-107.11 0,-60.78 -31.13,-105.15 -93.39,-133.33l-176.71 -80.64c-69.36,-31.62 -122.55,-69.61 -159.8,-113.98 -37.01,-44.6 -55.63,-100 -55.63,-165.93 0,-88.97 26.96,-158.09 80.39,-206.86 53.68,-48.77 129.65,-73.29 227.7,-73.29 68.37,0 128.92,10.05 181.62,30.15 52.7,20.1 103.43,52.94 152.2,98.52l-100.48 101.97c-42.16,-34.56 -81.38,-59.57 -118.14,-75 -36.52,-15.69 -74.75,-23.53 -114.46,-23.53 -49.27,0 -87.5,12.01 -114.46,35.54 -27.2,23.77 -40.68,58.82 -40.68,105.39 0,32.84 8.82,59.8 26.72,80.64 17.64,20.83 43.63,39.46 78.18,55.63l149.26 70.35c75.74,35.53 133.09,75.49 172.31,120.09 39.46,44.37 59.07,101.71 59.07,171.57 0,92.4 -30.15,161.52 -90.2,207.84 -60.05,46.07 -151.22,69.36 -273.28,69.36z"/>
  <path id="5" class="fil2" d="M4722.55 8313.36l0 -1019.61 149.51 0 0 1019.61 -149.51 0zm-298.77 -883.33l0 -136.28 746.81 0 0 136.28 -746.81 0z"/>
  <path id="6" class="fil2" d="M5468.13 7925.62l0 -136.52 211.03 0c56.87,0 101.22,-14.95 133.09,-45.09 31.86,-30.15 47.79,-72.55 47.79,-127.21 0,-59.8 -15.93,-105.88 -47.79,-138.23 -31.86,-32.35 -76.22,-48.53 -133.09,-48.53l-208.33 0 -17.16 -136.28 225.49 0c105.64,0 187.5,26.72 245.1,80.39 57.84,53.68 86.52,129.66 86.52,228.43 0,102.45 -28.67,181.86 -86.52,238.24 -57.6,56.62 -139.46,84.8 -245.1,84.8l-211.03 0zm-139.46 387.74l0 -1019.61 149.51 0 0 1019.61 -149.51 0zm547.3 0l-228.43 -479.65 157.85 0 242.89 479.65 -172.3 0z"/>
  <path id="7" class="fil2" d="M6445.33 8313.36l0 -1019.61 149.51 0 0 1019.61 -149.51 0zm-234.8 0l0 -136.52 620.34 0 0 136.52 -620.34 0zm0 -883.33l0 -136.28 620.34 0 0 136.28 -620.34 0z"/>
  <path id="8" class="fil2" d="M6984.05 8313.36l294.37 -1019.61 208.33 0 294.36 1019.61 -150.73 0 -241.43 -896.08 -12.99 0 -241.18 896.08 -150.73 0zm136.28 -248.53l0 -136.27 517.15 0 0 136.27 -517.15 0z"/>
  <path id="9" class="fil2" d="M7928.42 8313.36l0 -1019.61 149.26 0 0 1019.61 -149.26 0zm0 0l0 -136.52 675 0 0 136.52 -675 0z"/>
  <path id="10" class="fil2" d="M349.73 9444.56l0 -166.19 256.91 0c69.22,0 123.23,-18.21 162.01,-54.91 38.8,-36.7 58.19,-88.32 58.19,-154.85 0,-72.81 -19.39,-128.9 -58.19,-168.29 -38.79,-39.39 -92.8,-59.09 -162.01,-59.09l-253.62 0 -20.89 -165.89 274.51 0c128.6,0 228.26,32.52 298.37,97.86 70.42,65.35 105.33,157.85 105.33,278.09 0,124.72 -34.91,221.4 -105.33,290.03 -70.11,68.93 -169.77,103.24 -298.37,103.24l-256.91 0zm-169.77 472.04l0 -1241.26 182.01 0 0 1241.26 -182.01 0zm666.28 0l-278.09 -583.93 192.15 0 295.7 583.93 -209.76 0z"/>
  <path id="11" class="fil2" d="M1673.24 9934.21c-305.54,0 -458.02,-210.06 -458.02,-629.59 0,-431.16 152.48,-646.89 458.02,-646.89 305.24,0 458.01,215.73 458.01,646.89 0,419.53 -152.77,629.59 -458.01,629.59zm0 -160.83c180.52,0 270.92,-156.36 270.92,-468.76 0,-324.04 -90.4,-486.06 -270.92,-486.06 -180.82,0 -270.93,162.02 -270.93,486.06 0,312.4 90.11,468.76 270.93,468.76z"/>
  <path id="12" class="fil2" d="M2549.18 9916.6l0 -166.2 255.42 0c76.68,0 136.66,-17.6 179.02,-52.81 42.66,-35.21 63.85,-84.73 63.85,-147.99 0,-65.35 -22.08,-116.07 -66.53,-151.87 -44.16,-35.8 -107.12,-53.71 -188.58,-53.71l-239.6 0 -20.89 -79.67 304.05 0c125.92,0 223.18,27.15 292.11,81.46 68.63,54.3 102.95,130.69 102.95,229.75 0,108.61 -32.52,192.45 -97.87,251.83 -65.35,59.38 -157.85,89.22 -277.79,89.22l-306.14 0zm-169.48 0l0 -1241.26 181.72 0 0 1241.26 -181.72 0zm110.11 -610.18l0 -85.64 356.56 0 0 85.64 -356.56 0zm59.38 -48.94l0 -79.67 202.9 0c65.64,0 116.97,-14.63 153.37,-44.16 36.39,-29.24 54.6,-71.32 54.6,-126.22 0,-53.71 -19.09,-94.59 -57.29,-123.23 -38.19,-28.65 -92.5,-42.97 -162.91,-42.97l-187.09 0 -20.89 -165.89 216.63 0c125.91,0 223.18,27.15 292.11,81.75 68.63,54.31 102.94,132.18 102.94,233.03 0,85.64 -32.52,151.58 -97.86,197.83 -65.35,46.25 -157.85,69.53 -277.79,69.53l-218.72 0z"/>
  <path id="13" class="fil2" d="M3855.39 9934.21c-305.54,0 -458.02,-210.06 -458.02,-629.59 0,-431.16 152.48,-646.89 458.02,-646.89 305.24,0 458.01,215.73 458.01,646.89 0,419.53 -152.77,629.59 -458.01,629.59zm0 -160.83c180.52,0 270.92,-156.36 270.92,-468.76 0,-324.04 -90.4,-486.06 -270.92,-486.06 -180.82,0 -270.93,162.02 -270.93,486.06 0,312.4 90.11,468.76 270.93,468.76z"/>
  <path id="14" class="fil2" d="M4855.44 9916.6l0 -1241.26 182.01 0 0 1241.26 -182.01 0zm-363.72 -1075.37l0 -165.89 909.17 0 0 165.89 -909.17 0z"/>
  <path id="15" class="fil2" d="M5945.62 9916.6l0 -1241.26 182.01 0 0 1241.26 -182.01 0zm-285.84 0l0 -166.2 755.2 0 0 166.2 -755.2 0zm0 -1075.37l0 -165.89 755.2 0 0 165.89 -755.2 0z"/>
  <path id="16" class="fil2" d="M7257.79 9934.21c-385.8,0 -578.56,-213.34 -578.56,-640.03 0,-202.3 48.64,-358.95 145.91,-469.95 97.27,-111 234.53,-166.5 411.77,-166.5 85.63,0 160.23,13.73 223.78,40.58 63.55,27.15 109.81,65.94 139.05,116.07l-129.5 128.3c-26.26,-39.38 -59.38,-70.11 -99.96,-91.6 -40.58,-21.79 -84.44,-32.52 -131.59,-32.52 -112.49,0 -202.59,40.58 -270.62,121.74 -67.74,80.86 -101.75,196.03 -101.75,345.22 0,325.23 140.54,487.85 421.31,487.85 84.44,0 167.99,-17.61 250.04,-52.52l40.28 153.66c-101.45,39.69 -208.27,59.68 -320.17,59.68z"/>
  <path id="17" class="fil2" d="M8176.69 9934.21c-70.41,0 -136.36,-5.67 -197.83,-17.31 -61.46,-11.34 -118.45,-28.35 -170.97,-51.02l22.67 -176.64c64.15,27.45 125.92,48.34 185.89,62.66 59.67,14.32 117.86,21.49 174.26,21.49 81.75,0 142.32,-14.33 182.01,-42.97 39.38,-28.65 59.38,-71.91 59.38,-130.39 0,-74 -37.9,-128 -113.69,-162.32l-215.13 -98.17c-84.44,-38.49 -149.19,-84.73 -194.55,-138.74 -45.06,-54.31 -67.73,-121.74 -67.73,-202.01 0,-108.31 32.82,-192.45 97.86,-251.83 65.35,-59.38 157.85,-89.22 277.2,-89.22 83.25,0 156.94,12.23 221.1,36.7 64.15,24.47 125.91,64.45 185.29,119.95l-122.33 124.12c-51.32,-42.07 -99.06,-72.51 -143.82,-91.3 -44.46,-19.09 -91.01,-28.65 -139.35,-28.65 -59.97,0 -106.52,14.62 -139.34,43.26 -33.12,28.94 -49.53,71.61 -49.53,128.3 0,39.98 10.75,72.81 32.52,98.17 21.49,25.37 53.11,48.04 95.18,67.73l181.72 85.64c92.2,43.26 162.02,91.9 209.76,146.2 48.04,54.01 71.91,123.83 71.91,208.87 0,112.49 -36.7,196.63 -109.8,253.03 -73.1,56.1 -184.11,84.44 -332.7,84.44z"/>
 </g>
</svg>
