<?xml version="1.0" encoding="UTF-8"?>
<svg id="_Слой_1" data-name="Слой 1" xmlns="http://www.w3.org/2000/svg" viewBox="0 0 275.74 210.21">
  <defs>
    <style>
      .cls-1, .cls-2, .cls-3, .cls-4, .cls-5, .cls-6, .cls-7, .cls-8, .cls-9, .cls-10 {
        stroke-miterlimit: 10;
      }

      .cls-1, .cls-3, .cls-6 {
        fill: none;
      }

      .cls-1, .cls-4, .cls-5, .cls-7, .cls-9, .cls-10 {
        stroke: #2b2a29;
      }

      .cls-1, .cls-4, .cls-5, .cls-7, .cls-10 {
        stroke-width: .57px;
      }

      .cls-11, .cls-2 {
        fill: #2b2a29;
      }

      .cls-11, .cls-12 {
        stroke-width: 0px;
      }

      .cls-2, .cls-6 {
        stroke-width: 2px;
      }

      .cls-2, .cls-8 {
        stroke: #000;
      }

      .cls-12, .cls-4, .cls-8, .cls-9, .cls-10 {
        fill-rule: evenodd;
      }

      .cls-3 {
        stroke-width: 1.5px;
      }

      .cls-3, .cls-6 {
        stroke: #fff;
      }

      .cls-4 {
        fill: #322f33;
      }

      .cls-5 {
        fill: #fff;
      }

      .cls-8 {
        stroke-width: 1px;
      }

      .cls-9 {
        stroke-width: .5px;
      }
    </style>
  </defs>
  <g id="_Слой_1-2" data-name="Слой_1">
    <g id="_2944058089360" data-name=" 2944058089360">
      <line class="cls-1" x1="164.64" y1="131.8" x2="164.64" y2="104.27"/>
      <path class="cls-1" d="m246.91,209.92v-53c0-13.82-11.3-25.12-25.12-25.12h-57.15"/>
      <path class="cls-1" d="m275.23,209.92v-55.59c0-27.53-22.53-50.06-50.06-50.06h-60.63"/>
      <line class="cls-1" x1="246.91" y1="209.92" x2="275.23" y2="209.92"/>
    </g>
    <circle class="cls-7" cx="187.93" cy="76.59" r="7.54"/>
    <circle class="cls-7" cx="223.84" cy="76.59" r="7.54"/>
    <path class="cls-1" d="m207.7,47.36v-5.77m-6.71-.12c-2-1.17-3.3-3.31-3.3-5.79,0-3.73,3.02-6.75,6.75-6.75s6.75,3.02,6.75,6.75c0,2.57-1.38,4.77-3.49,5.91m-6.71,5.77v-5.89m46.27,5.6v-27.53h-60.62c-27.53,0-50.06,22.53-50.06,50.06v34.53m28.04,0h-28.05m110.7-57.06h-39.49m-6.79,0h-11.26c-13.82,0-25.12,11.3-25.12,25.12v31.94"/>
    <path class="cls-2" d="m213.36,89.28c-.19,1.42-.97,2.69-2.14,3.64-1.34,1.09-3.18,1.76-5.2,1.76s-3.87-.67-5.2-1.76c-1.17-.95-1.95-2.22-2.14-3.64h.57c.19,1.24.89,2.36,1.93,3.2,1.24,1.01,2.95,1.63,4.85,1.63s3.61-.62,4.85-1.63c1.04-.84,1.74-1.96,1.93-3.2h.57,0Z"/>
    <path class="cls-4" d="m246.91,209.92h28.32v-55.59c-.01-29.3-18.89-44.34-50.06-50.06l-60.56-.13.03,27.66h57.15c15.46.96,23.65,9.52,25.12,25.12v53Z"/>
    <path class="cls-10" d="m247.48,47.21h27.98v34.53c0,27.53-22.53,50.06-50.06,50.06h-60.62v-27.53h57.54c13.82,0,25.09-11.3,25.12-25.12l.06-31.94h0Z"/>
    <path class="cls-10" d="m136.56,104.14l28.21.13-.17-32.07c.02-13.8,11.51-24.79,24.4-25.11h11.98c0-1.88,0-3.75,0-5.61-5.87-3.42-3.42-12.58,3.45-12.54,7.78.67,8.82,9.41,3.26,12.66v5.77l39.56-.28v-26.94l-60.62-.59c-25.5.04-49.94,21.15-50.06,50.06v34.53s0,0,0,0Z"/>
    <polygon class="cls-12" points="164.61 80.34 164.61 209.85 136.56 209.85 136.56 80.34 164.61 80.34"/>
    <polygon class="cls-11" points="164.89 80.34 164.89 210.13 136.27 210.13 136.27 80.34 136.84 80.34 136.84 209.56 164.32 209.56 164.32 80.34 164.89 80.34"/>
    <path class="cls-8" d="m51.35,62.16h-8.56l-16.71-21.87L40.95,4.53c1.05-1.93,2.54-2.52,4.45-1.84,1.97.93,2.42,2.53,1.84,4.45l-13.17,31.7,17.28,23.32h0Z"/>
    <polygon class="cls-12" points="1.08 19.37 130.58 19.37 130.58 47.42 1.08 47.42 1.08 19.37"/>
    <path class="cls-9" d="m60.54,116.49h10.64c4.7,0,8.5,2.77,8.5,6.2v77.57c0,3.42-3.81,6.2-8.5,6.2h-10.64c-4.7,0-8.5-2.77-8.5-6.2v-77.57c0-3.42,3.81-6.2,8.5-6.2Z"/>
    <path class="cls-12" d="m1.27,182.25h102.29c14.79,0,26.9,11.93,26.9,26.52v1.07H1.27v-27.59h0Z"/>
    <path class="cls-11" d="m1.27,182.01h102.29c7.47,0,14.26,3.01,19.18,7.86,4.92,4.85,7.98,11.54,7.98,18.9v1.07h-.51v-1.07c0-7.22-3-13.79-7.83-18.55-4.83-4.76-11.49-7.72-18.82-7.72H1.27v-.5h0Z"/>
    <path class="cls-11" d="m80.31,62.16v42.58c0,2.41-.98,4.6-2.57,6.18-1.59,1.59-3.78,2.57-6.18,2.57h-10.64c-2.41,0-4.6-.99-6.18-2.57-1.59-1.59-2.57-3.77-2.57-6.18v-42.58h.5v42.58c0,2.27.93,4.33,2.42,5.83,1.5,1.5,3.56,2.42,5.83,2.42h10.64c2.27,0,4.33-.93,5.83-2.42,1.5-1.5,2.42-3.56,2.42-5.83v-42.58h.5,0Z"/>
    <polyline class="cls-6" points="78.93 62.16 96.22 38.84 83.05 7.14 83.28 9.01"/>
    <polyline class="cls-6" points="89.45 63.73 107.32 40.29 92.45 4.53 95.27 7.36"/>
    <path class="cls-12" d="m80.06,62.16v42.58c0,4.68-3.83,8.5-8.5,8.5h-10.64c-4.68,0-8.5-3.83-8.5-8.5v-42.58s27.65,0,27.65,0Z"/>
    <circle class="cls-5" cx="65.61" cy="98.68" r="7.25"/>
    <line class="cls-3" y1="47.99" x2="132.22" y2="47.99"/>
    <path class="cls-8" d="m80.57,62.16h8.56l16.71-21.87-14.87-35.76c-1.05-1.93-2.54-2.52-4.45-1.84-1.97.93-2.42,2.53-1.84,4.45l13.17,31.7-17.28,23.32h0Z"/>
  </g>
</svg>